<svg width="9" height="8" viewBox="0 0 9 8" fill="none" xmlns="http://www.w3.org/2000/svg">
<path d="M1.69852 0.236252L1.69871 0.755855C1.69873 0.818505 1.72363 0.878582 1.76793 0.922882C1.81223 0.967182 1.87231 0.992082 1.93496 0.992107L6.80628 0.992012L0.569129 7.22923C0.524847 7.27356 0.499982 7.33366 0.5 7.39632C0.500018 7.45898 0.524917 7.51907 0.569224 7.56338L0.936703 7.93086C1.0289 8.02306 1.17855 8.02306 1.27085 7.93077L7.508 1.69355L7.50781 6.56521C7.50784 6.62786 7.53273 6.68793 7.57703 6.73223C7.62133 6.77653 7.68141 6.80143 7.74406 6.80146H8.26366C8.32631 6.80143 8.38638 6.77653 8.43068 6.73223C8.47498 6.68793 8.49988 6.62786 8.49991 6.56521L8.5 0.236254C8.49997 0.173604 8.47508 0.113527 8.43078 0.0692265C8.38648 0.0249262 8.3264 2.7284e-05 8.26375 1.71918e-06L1.93477 0C1.87212 2.55649e-05 1.81204 0.0249246 1.76774 0.0692249C1.72344 0.113525 1.69854 0.173602 1.69852 0.236252Z" fill="white"/>
</svg>
