<svg width="138" height="40" viewBox="0 0 138 40" fill="none" xmlns="http://www.w3.org/2000/svg">
<path d="M51.4376 37.093L52.8705 28.208H49.3531L49.539 27.0661H57.9763L57.7904 28.208H54.3023L52.8694 37.093H51.4365H51.4376Z" fill="white"/>
<path d="M61.8587 34.6238L63.1533 34.7469C63.0052 35.3443 62.6151 35.9125 61.983 36.4505C61.3508 36.9884 60.5739 37.2574 59.6532 37.2574C59.0783 37.2574 58.5424 37.1332 58.0474 36.8847C57.5514 36.6363 57.1635 36.2744 56.8836 35.8002C56.6038 35.3259 56.4449 34.7858 56.4071 34.1787C56.3585 33.3858 56.5065 32.6156 56.8534 31.8702C57.1992 31.1248 57.6736 30.5707 58.2754 30.2077C58.8773 29.8447 59.5408 29.6643 60.267 29.6643C61.1931 29.6643 61.9495 29.9333 62.5362 30.4713C63.123 31.0092 63.445 31.7438 63.5023 32.6739C63.5239 33.0293 63.5131 33.3944 63.4677 33.7682H57.7503C57.7395 33.9097 57.7373 34.0372 57.7449 34.1517C57.787 34.8312 57.9858 35.3497 58.3414 35.7072C58.6969 36.0648 59.1161 36.2441 59.5992 36.2441C60.053 36.2441 60.4896 36.1048 60.911 35.8272C61.3325 35.5495 61.6491 35.1477 61.8609 34.6238H61.8587ZM57.9026 32.8251H62.2607C62.2574 32.6977 62.2542 32.6058 62.251 32.5518C62.2131 31.9318 62.0175 31.4565 61.6653 31.1259C61.313 30.7953 60.8764 30.6301 60.3556 30.6301C59.7904 30.6301 59.2858 30.8126 58.8428 31.1778C58.3997 31.5429 58.0863 32.0916 57.9026 32.8262V32.8251Z" fill="white"/>
<path d="M69.8317 34.4455L71.163 34.5751C70.8874 35.4826 70.4573 36.1566 69.8727 36.5963C69.2881 37.036 68.6063 37.2563 67.8261 37.2563C66.9832 37.2563 66.283 37.0014 65.7276 36.4904C65.1721 35.9795 64.8663 35.2665 64.8091 34.3494C64.7604 33.5565 64.8804 32.7765 65.1689 32.0106C65.4574 31.2447 65.9037 30.6625 66.5056 30.2628C67.1075 29.8642 67.8099 29.6643 68.6149 29.6643C69.42 29.6643 70.1224 29.8847 70.6367 30.3244C71.1511 30.764 71.431 31.3474 71.4753 32.0722L70.1785 32.1543C70.145 31.6941 69.9808 31.3333 69.6836 31.0741C69.3876 30.8137 69.0104 30.6841 68.5523 30.6841C68.0206 30.6841 67.57 30.8418 67.1993 31.1561C66.8287 31.4705 66.5521 31.948 66.3705 32.5886C66.1879 33.2292 66.1155 33.846 66.1522 34.439C66.1901 35.0591 66.3651 35.5247 66.6774 35.8347C66.9886 36.1447 67.3593 36.3003 67.7883 36.3003C68.2173 36.3003 68.6182 36.148 68.9921 35.8423C69.3659 35.5366 69.6447 35.0721 69.8306 34.4466L69.8317 34.4455Z" fill="white"/>
<path d="M72.1228 37.0932L73.7415 27.0663H75.0652L74.4471 30.9174C74.9118 30.4701 75.3505 30.1504 75.7622 29.9559C76.1739 29.7626 76.604 29.6654 77.0535 29.6654C77.6965 29.6654 78.2065 29.8241 78.5815 30.1407C78.9565 30.4572 79.1607 30.8763 79.1931 31.3959C79.2093 31.6509 79.1596 32.1208 79.0461 32.8046L78.3535 37.0932H77.0298L77.7451 32.6955C77.8467 32.057 77.8931 31.6563 77.8823 31.4921C77.8672 31.2555 77.7678 31.061 77.583 30.9109C77.3982 30.7607 77.14 30.6851 76.8082 30.6851C76.3306 30.6851 75.8822 30.8029 75.4629 31.0373C75.0436 31.2717 74.7238 31.5936 74.5022 32.0019C74.2807 32.4103 74.097 33.0681 73.9479 33.9756L73.4454 37.0942H72.1217L72.1228 37.0932Z" fill="white"/>
<path d="M80.4498 37.0932L81.6244 29.8296H82.8238L82.6164 31.0946C83.107 30.5977 83.5727 30.2347 84.0114 30.0068C84.4501 29.7788 84.9061 29.6643 85.3794 29.6643C86.0084 29.6643 86.5119 29.8242 86.889 30.1429C87.2673 30.4615 87.4726 30.8882 87.505 31.4219C87.5212 31.6909 87.4844 32.1154 87.3937 32.6944L86.6783 37.0921H85.3546L86.1013 32.4892C86.1758 32.042 86.2072 31.7114 86.1931 31.4975C86.178 31.2555 86.0775 31.06 85.8895 30.9088C85.7025 30.7586 85.441 30.683 85.1039 30.683C84.4264 30.683 83.8374 30.9109 83.336 31.3668C82.8357 31.8227 82.4953 32.6048 82.3149 33.7131L81.7703 37.0921H80.4465L80.4498 37.0932Z" fill="white"/>
<path d="M88.8418 34.3364C88.7543 32.918 89.1282 31.7438 89.9624 30.8137C90.6507 30.0478 91.593 29.6643 92.7871 29.6643C93.7229 29.6643 94.4944 29.9376 95.1006 30.4853C95.7069 31.033 96.0397 31.7708 96.0969 32.7009C96.1488 33.5349 96.0159 34.3116 95.6993 35.0299C95.3827 35.7483 94.904 36.2992 94.2621 36.6816C93.6202 37.0651 92.9319 37.2563 92.196 37.2563C91.5919 37.2563 91.0344 37.1353 90.5243 36.8934C90.0143 36.6514 89.6155 36.31 89.3281 35.8671C89.0396 35.4253 88.8786 34.9143 88.8418 34.3353V34.3364ZM90.158 34.2133C90.2001 34.8971 90.4076 35.4156 90.7804 35.7688C91.1532 36.1221 91.6103 36.2992 92.1506 36.2992C92.4337 36.2992 92.7104 36.2452 92.9816 36.1383C93.2528 36.0313 93.5014 35.8682 93.7261 35.6489C93.9509 35.4296 94.14 35.1801 94.2902 34.9003C94.4415 34.6194 94.5582 34.318 94.6403 33.994C94.7635 33.5424 94.8121 33.1092 94.7873 32.6944C94.7462 32.0376 94.5387 31.5278 94.1627 31.1659C93.7866 30.8029 93.3306 30.6225 92.7946 30.6225C92.3808 30.6225 92.008 30.7143 91.6784 30.8991C91.3488 31.0838 91.057 31.3538 90.8031 31.7092C90.5492 32.0646 90.373 32.4784 90.2725 32.9504C90.172 33.4225 90.1342 33.8427 90.1569 34.2122L90.158 34.2133Z" fill="white"/>
<path d="M97.0045 37.0932L98.6233 27.0663H99.947L98.3282 37.0932H97.0045Z" fill="white"/>
<path d="M100.498 34.3364C100.41 32.918 100.784 31.7438 101.618 30.8137C102.306 30.0478 103.249 29.6643 104.443 29.6643C105.379 29.6643 106.15 29.9376 106.756 30.4853C107.363 31.033 107.695 31.7708 107.753 32.7009C107.805 33.5349 107.672 34.3116 107.355 35.0299C107.038 35.7483 106.56 36.2992 105.918 36.6816C105.276 37.0651 104.588 37.2563 103.852 37.2563C103.248 37.2563 102.69 37.1353 102.18 36.8934C101.67 36.6514 101.271 36.31 100.984 35.8671C100.695 35.4253 100.534 34.9143 100.498 34.3353V34.3364ZM101.813 34.2133C101.855 34.8971 102.062 35.4156 102.435 35.7688C102.808 36.1221 103.265 36.2992 103.805 36.2992C104.088 36.2992 104.365 36.2452 104.636 36.1383C104.907 36.0313 105.156 35.8682 105.381 35.6489C105.606 35.4296 105.795 35.1801 105.945 34.9003C106.096 34.6194 106.213 34.318 106.295 33.994C106.418 33.5424 106.467 33.1092 106.442 32.6944C106.401 32.0376 106.193 31.5278 105.817 31.1659C105.441 30.8029 104.985 30.6225 104.449 30.6225C104.035 30.6225 103.663 30.7143 103.333 30.8991C103.003 31.0838 102.712 31.3538 102.458 31.7092C102.204 32.0646 102.028 32.4784 101.927 32.9504C101.827 33.4225 101.789 33.8427 101.812 34.2122L101.813 34.2133Z" fill="white"/>
<path d="M108.728 37.7491L110.074 37.8658C110.081 38.1488 110.131 38.3605 110.223 38.502C110.315 38.6435 110.453 38.7526 110.638 38.8304C110.883 38.9309 111.195 38.9806 111.576 38.9806C112.375 38.9806 112.938 38.7872 113.266 38.3994C113.479 38.1391 113.656 37.5741 113.797 36.7034L113.893 36.1147C113.245 36.7671 112.534 37.0923 111.759 37.0923C110.985 37.0923 110.301 36.8222 109.739 36.2821C109.177 35.742 108.865 34.9772 108.804 33.9877C108.753 33.171 108.915 32.4213 109.29 31.7375C109.665 31.0537 110.129 30.5373 110.682 30.1884C111.235 29.8395 111.817 29.6656 112.426 29.6656C113.445 29.6656 114.258 30.1171 114.864 31.0202L115.054 29.8298H116.268L115.136 36.8406C115.013 37.6108 114.826 38.2114 114.574 38.6425C114.323 39.0735 113.957 39.4073 113.478 39.6449C112.998 39.8815 112.434 40.0003 111.785 40.0003C111.137 40.0003 110.619 39.9247 110.159 39.7746C109.699 39.6244 109.349 39.404 109.11 39.1145C108.87 38.825 108.739 38.4934 108.715 38.1196C108.708 38.0051 108.713 37.882 108.729 37.7502L108.728 37.7491ZM110.143 33.8785C110.173 34.3755 110.248 34.7492 110.366 34.9998C110.533 35.3509 110.759 35.6188 111.04 35.8036C111.321 35.9883 111.629 36.0801 111.959 36.0801C112.393 36.0801 112.815 35.9375 113.227 35.6523C113.639 35.3671 113.958 34.9264 114.188 34.329C114.417 33.7316 114.514 33.1613 114.48 32.619C114.444 32.0216 114.237 31.5463 113.862 31.193C113.487 30.8398 113.039 30.6626 112.517 30.6626C112.195 30.6626 111.888 30.7437 111.596 30.9057C111.303 31.0677 111.038 31.314 110.798 31.6446C110.558 31.9751 110.384 32.3705 110.279 32.8318C110.173 33.292 110.128 33.6409 110.143 33.8785Z" fill="white"/>
<path d="M117.038 37.0926L118.213 29.829H119.537L118.362 37.0926H117.038ZM118.437 28.4668L118.665 27.0646H119.981L119.753 28.4668H118.437Z" fill="white"/>
<path d="M125.968 34.6238L127.262 34.7469C127.114 35.3443 126.724 35.9125 126.092 36.4505C125.46 36.9884 124.683 37.2574 123.762 37.2574C123.187 37.2574 122.651 37.1332 122.156 36.8847C121.661 36.6363 121.272 36.2744 120.993 35.8002C120.713 35.3259 120.554 34.7858 120.516 34.1787C120.467 33.3858 120.615 32.6156 120.962 31.8702C121.308 31.1248 121.783 30.5707 122.384 30.2077C122.986 29.8447 123.65 29.6643 124.376 29.6643C125.302 29.6643 126.058 29.9333 126.645 30.4713C127.232 31.0092 127.554 31.7438 127.611 32.6739C127.633 33.0293 127.622 33.3944 127.577 33.7682H121.859C121.848 33.9097 121.846 34.0372 121.854 34.1517C121.896 34.8312 122.095 35.3497 122.45 35.7072C122.806 36.0648 123.225 36.2441 123.708 36.2441C124.162 36.2441 124.599 36.1048 125.02 35.8272C125.441 35.5495 125.758 35.1477 125.969 34.6238H125.968ZM122.011 32.8251H126.369C126.365 32.6977 126.362 32.6058 126.359 32.5518C126.321 31.9318 126.125 31.4565 125.773 31.1259C125.421 30.7953 124.984 30.6301 124.463 30.6301C123.898 30.6301 123.394 30.8126 122.951 31.1778C122.508 31.5429 122.194 32.0916 122.011 32.8262V32.8251Z" fill="white"/>
<path d="M128.716 34.61L130.034 34.5344C130.056 34.8898 130.134 35.1934 130.266 35.444C130.399 35.6946 130.627 35.8999 130.951 36.0597C131.275 36.2196 131.647 36.2996 132.066 36.2996C132.65 36.2996 133.083 36.1904 133.361 35.9712C133.64 35.7519 133.771 35.4948 133.753 35.1988C133.74 34.9849 133.639 34.7818 133.452 34.5906C133.26 34.3994 132.805 34.1628 132.089 33.883C131.372 33.6022 130.912 33.4056 130.711 33.2911C130.373 33.1042 130.113 32.8838 129.932 32.631C129.75 32.3782 129.65 32.0877 129.629 31.7593C129.593 31.1846 129.807 30.692 130.269 30.2815C130.731 29.871 131.4 29.6657 132.278 29.6657C133.252 29.6657 134.008 29.8764 134.544 30.2988C135.079 30.7201 135.378 31.2753 135.439 31.9645L134.15 32.0466C134.104 31.6091 133.917 31.2623 133.588 31.0074C133.261 30.7525 132.811 30.6239 132.241 30.6239C131.783 30.6239 131.433 30.7222 131.192 30.9177C130.951 31.1143 130.836 31.3261 130.851 31.554C130.866 31.7819 130.987 31.9829 131.218 32.1557C131.371 32.2745 131.76 32.4571 132.385 32.7034C133.424 33.1139 134.082 33.438 134.36 33.6745C134.803 34.0526 135.041 34.5139 135.074 35.0562C135.097 35.417 135 35.7702 134.785 36.1159C134.57 36.4627 134.226 36.7392 133.754 36.9466C133.282 37.154 132.716 37.2577 132.058 37.2577C131.161 37.2577 130.386 37.0503 129.732 36.6355C129.077 36.2207 128.739 35.5455 128.715 34.6111L128.716 34.61Z" fill="white"/>
<path d="M52.3652 2.8201H68.9534L68.4499 7.09573H58.0654L57.6904 10.2782H67.3239L66.843 14.3626H57.2095L56.7449 18.3098H67.4298L66.896 22.8447H50.0074L52.3663 2.8201H52.3652Z" fill="white"/>
<path d="M69.3742 8.34048H75.1608L76.893 17.5334L80.8977 8.34048H86.5092L78.6328 22.8472H73.6998L69.3742 8.34048Z" fill="white"/>
<path d="M85.3628 15.6681C85.6232 13.4547 86.5849 11.6312 88.2479 10.1977C89.911 8.76314 92.0127 8.04585 94.5543 8.04585C97.46 8.04585 99.5564 8.88845 100.842 10.5726C101.875 11.9294 102.276 13.6005 102.042 15.586C101.779 17.8178 100.824 19.6456 99.176 21.0704C97.5281 22.4953 95.3961 23.2083 92.7821 23.2083C90.4502 23.2083 88.6337 22.6163 87.3348 21.4323C85.7399 19.9664 85.0829 18.0447 85.3628 15.6681ZM90.9397 15.6551C90.7873 16.9482 90.9365 17.9042 91.3871 18.5232C91.8377 19.1422 92.459 19.4522 93.2522 19.4522C94.0453 19.4522 94.7477 19.1476 95.3345 18.5373C95.9213 17.928 96.2941 16.9482 96.4529 15.6001C96.6009 14.3437 96.4518 13.4071 96.0045 12.7936C95.5571 12.1789 94.952 11.8721 94.1869 11.8721C93.3754 11.8721 92.6697 12.1843 92.0678 12.8076C91.466 13.4309 91.0899 14.3804 90.9397 15.6551Z" fill="white"/>
<path d="M105.68 2.82024H111.364L110.146 13.1572L114.868 8.33925H121.714L115.909 13.4207L120.305 22.8459H114.038L111.784 17.0309L109.448 19.0759L109.004 22.8459H103.32L105.679 2.82132L105.68 2.82024Z" fill="white"/>
<path d="M137.289 17.0065H126.139C126.134 17.8987 126.297 18.5631 126.628 19.0006C127.091 19.6293 127.756 19.9437 128.621 19.9437C129.168 19.9437 129.703 19.8075 130.227 19.5342C130.548 19.3614 130.907 19.0568 131.305 18.6193L136.725 19.1248C135.714 20.5821 134.581 21.6267 133.322 22.2597C132.063 22.8927 130.328 23.2093 128.114 23.2093C126.191 23.2093 124.712 22.9381 123.673 22.3969C122.635 21.8546 121.823 20.9947 121.238 19.8151C120.652 18.6366 120.454 17.2495 120.641 15.6561C120.908 13.3887 121.85 11.5533 123.469 10.1512C125.088 8.74901 127.177 8.04793 129.737 8.04793C131.814 8.04793 133.416 8.36228 134.544 8.98991C135.672 9.61861 136.481 10.5293 136.969 11.7219C137.457 12.9155 137.588 14.4679 137.363 16.3799L137.289 17.0075V17.0065ZM131.945 14.3436C131.963 13.2688 131.764 12.4996 131.35 12.0351C130.935 11.5706 130.346 11.3384 129.581 11.3384C128.697 11.3384 127.95 11.6895 127.339 12.3905C126.95 12.828 126.659 13.4784 126.467 14.3436H131.946H131.945Z" fill="white"/>
<path d="M20.7743 16.6762C12.1026 19.5324 4.37198 19.5821 3.59936 16.7961C3.29679 15.785 3.96892 14.5449 5.34668 13.2237C1.91795 15.1055 -0.0984408 17.1159 0.237624 18.6736C0.842758 21.3742 8.30427 21.6983 16.8756 19.366C23.8335 17.4994 29.4126 14.4682 30.9255 11.9447C28.3709 13.6375 24.8417 15.3648 20.7743 16.6773V16.6762Z" fill="white"/>
<path d="M18.2284 25.2193C10.5454 27.7093 3.69552 27.7525 3.01042 25.323C2.74243 24.4415 3.33784 23.3602 4.55891 22.2076C1.52136 23.8485 -0.265944 25.6006 0.0323 26.9596C0.568275 29.3145 7.17936 29.5976 14.7738 27.5634C20.9386 25.9355 25.8823 23.2932 27.2222 21.0927C24.9584 22.5684 21.8322 24.0742 18.2284 25.2193Z" fill="white"/>
<path d="M17.5545 32.6705C12.2822 34.3968 7.58164 34.4259 7.11159 32.7429C6.92788 32.1315 7.33635 31.3829 8.17381 30.5846C6.08934 31.7221 4.86287 32.9363 5.0671 33.8772C5.4345 35.5094 9.97192 35.7049 15.1836 34.2952C19.4142 33.1674 22.8062 31.3364 23.7257 29.8111C22.1729 30.8341 20.0269 31.8776 17.5545 32.6705Z" fill="white"/>
<path fill-rule="evenodd" clip-rule="evenodd" d="M23.627 0C15.3734 0 8.36463 5.20465 5.77768 12.4326C8.59479 6.8099 14.457 2.95557 21.2691 2.95557C29.621 2.95557 36.5638 8.77056 38.1685 16.5127C38.3976 17.6049 38.5284 18.7618 38.5284 19.9501C38.5284 29.2986 30.7989 36.8809 21.2691 36.8809C20.9741 36.8809 20.6791 36.8809 20.3852 36.8484C21.4333 37.0407 22.5139 37.138 23.628 37.138C34.0752 37.138 42.5255 28.8168 42.5255 18.5684C42.5255 8.3201 34.0742 0 23.627 0Z" fill="white"/>
</svg>
